<svg width="8" height="13" viewBox="0 0 8 13" fill="none" xmlns="http://www.w3.org/2000/svg">
<path d="M5.03704 12.8096H3.11515C2.79414 12.8096 2.533 12.5368 2.533 12.2014V7.67254H1.41174C1.09072 7.67254 0.82959 7.39963 0.82959 7.06435V5.12374C0.82959 4.78836 1.09072 4.51554 1.41174 4.51554H2.533V3.54375C2.533 2.58019 2.82261 1.7604 3.37043 1.17316C3.92071 0.583234 4.68974 0.271484 5.59437 0.271484L7.06009 0.273971C7.38056 0.274545 7.64124 0.547362 7.64124 0.882165V2.68398C7.64124 3.01936 7.38019 3.29217 7.05927 3.29217L6.07242 3.29256C5.77145 3.29256 5.69482 3.35559 5.67843 3.37492C5.65141 3.40696 5.61928 3.49755 5.61928 3.7477V4.51545H6.9851C7.08793 4.51545 7.18755 4.54194 7.27316 4.59188C7.45784 4.69968 7.57266 4.90353 7.57266 5.12383L7.57192 7.06445C7.57192 7.39963 7.31079 7.67245 6.98977 7.67245H5.61928V12.2014C5.61928 12.5368 5.35805 12.8096 5.03704 12.8096ZM3.23657 12.0745H4.91562V7.34348C4.91562 7.11955 5.09005 6.93741 5.3043 6.93741H6.86836L6.869 5.25058H5.30421C5.08996 5.25058 4.91562 5.06845 4.91562 4.84451V3.7477C4.91562 3.46053 4.94355 3.13395 5.15103 2.8885C5.40173 2.59176 5.79681 2.55752 6.07223 2.55752L6.93767 2.55714V1.00882L5.59382 1.00652C4.14001 1.00652 3.23657 1.97879 3.23657 3.54375V4.84451C3.23657 5.06835 3.06223 5.25058 2.84798 5.25058H1.53315V6.93741H2.84798C3.06223 6.93741 3.23657 7.11955 3.23657 7.34348V12.0745ZM7.05872 1.00901H7.05881H7.05872Z" fill="#FAF8F4"/>
</svg>
