<svg width="13" height="13" viewBox="0 0 13 13" fill="none" xmlns="http://www.w3.org/2000/svg">
<g clip-path="url(#clip0)">
<path d="M12.9874 4.28865C12.9569 3.65989 12.8452 3.22762 12.6852 2.85306C12.5201 2.45547 12.2662 2.09951 11.9335 1.80359C11.6084 1.50307 11.2148 1.26956 10.783 1.12165C10.3692 0.975993 9.89677 0.874315 9.20603 0.846593C8.51013 0.816523 8.28921 0.80957 6.52421 0.80957C4.75922 0.80957 4.5383 0.816523 3.84498 0.844246C3.15424 0.871968 2.67937 0.973736 2.26798 1.1193C1.83109 1.26956 1.44004 1.50073 1.11496 1.80359C0.784816 2.09951 0.528381 2.45782 0.365789 2.8508C0.205777 3.22762 0.0940766 3.65754 0.0636218 4.2863C0.0305877 4.91976 0.0229492 5.12086 0.0229492 6.72747C0.0229492 8.33409 0.0305877 8.53519 0.0610426 9.1663C0.0914974 9.79506 0.203297 10.2273 0.363309 10.6019C0.528381 10.9995 0.784816 11.3554 1.11496 11.6514C1.44004 11.9519 1.83367 12.1854 2.2654 12.3333C2.67937 12.479 3.15166 12.5806 3.8425 12.6084C4.53572 12.6362 4.75674 12.643 6.52173 12.643C8.28673 12.643 8.50765 12.6362 9.20097 12.6084C9.89171 12.5806 10.3666 12.479 10.778 12.3333C11.6516 12.0258 12.3424 11.3971 12.6802 10.6019C12.8401 10.2251 12.9519 9.79506 12.9823 9.1663C13.0128 8.53519 13.0204 8.33409 13.0204 6.72747C13.0204 5.12086 13.0178 4.91976 12.9874 4.28865ZM11.8167 9.12006C11.7887 9.69798 11.6821 10.0101 11.5932 10.2181C11.3748 10.7336 10.9253 11.1428 10.3589 11.3416C10.1304 11.4225 9.78507 11.5196 9.15266 11.545C8.46698 11.5728 8.26133 11.5797 6.52679 11.5797C4.79226 11.5797 4.58403 11.5728 3.90083 11.545C3.26594 11.5196 2.9231 11.4225 2.69454 11.3416C2.41271 11.2468 2.15618 11.0966 1.94795 10.9001C1.73209 10.7082 1.56702 10.477 1.46286 10.2205C1.37397 10.0124 1.26733 9.69798 1.23946 9.12241C1.2089 8.49826 1.20136 8.31098 1.20136 6.73208C1.20136 5.15318 1.2089 4.96364 1.23946 4.34184C1.26733 3.76392 1.37397 3.45184 1.46286 3.24379C1.56702 2.98716 1.73209 2.75373 1.95053 2.5641C2.16124 2.36761 2.41519 2.21735 2.69712 2.12262C2.92568 2.04171 3.2711 1.94464 3.90341 1.91918C4.58909 1.89146 4.79484 1.8845 6.52927 1.8845C8.26639 1.8845 8.47204 1.89146 9.15524 1.91918C9.79012 1.94464 10.133 2.04171 10.3615 2.12262C10.6434 2.21735 10.8999 2.36761 11.1081 2.5641C11.324 2.75599 11.489 2.98716 11.5932 3.24379C11.6821 3.45184 11.7887 3.76617 11.8167 4.34184C11.8472 4.96599 11.8548 5.15318 11.8548 6.73208C11.8548 8.31098 11.8472 8.49591 11.8167 9.12006Z" fill="#FAF8F4"/>
<path d="M6.52409 3.68774C4.68043 3.68774 3.18457 5.04929 3.18457 6.72761C3.18457 8.40592 4.68043 9.76747 6.52409 9.76747C8.36785 9.76747 9.86361 8.40592 9.86361 6.72761C9.86361 5.04929 8.36785 3.68774 6.52409 3.68774ZM6.52409 8.69949C5.32802 8.69949 4.35783 7.81644 4.35783 6.72761C4.35783 5.63877 5.32802 4.75572 6.52409 4.75572C7.72026 4.75572 8.69035 5.63877 8.69035 6.72761C8.69035 7.81644 7.72026 8.69949 6.52409 8.69949Z" fill="#FAF8F4"/>
<path d="M10.7754 3.56733C10.7754 3.95924 10.4263 4.277 9.99569 4.277C9.56516 4.277 9.21606 3.95924 9.21606 3.56733C9.21606 3.17534 9.56516 2.85767 9.99569 2.85767C10.4263 2.85767 10.7754 3.17534 10.7754 3.56733Z" fill="#FAF8F4"/>
</g>
<defs>
<clipPath id="clip0">
<rect y="0.80957" width="13" height="11.8335" fill="white"/>
</clipPath>
</defs>
</svg>
