<svg width="60" height="23" viewBox="0 0 60 23" fill="none" xmlns="http://www.w3.org/2000/svg">
<path d="M50.9713 1.00367H46.3341L39.2931 17.9614L36.4729 13.3514C39.4256 12.3209 40.8451 10.2418 40.8451 7.43966C40.8451 3.5166 37.8167 1.02175 34.0313 1.02175H22.618V9.69949H11.5644H11.5076V13.7672H17.8483C17.0155 16.5513 14.7253 18.3953 11.5644 18.3953C7.60855 18.3953 4.97763 15.3219 4.97763 11.7243C4.97763 7.94586 7.66533 5.03521 11.5644 5.03521C13.0407 5.03521 14.3278 5.43294 15.4824 6.21032L18.2458 2.86577C16.2962 1.60027 14.0439 0.985596 11.5644 0.985596C5.07227 0.985596 0.113281 5.72219 0.113281 11.7243C0.113281 17.9614 5.33725 22.4449 11.5644 22.4449C16.9398 22.4449 21.2931 19.1908 22.618 14.653V22.4811H27.2931V13.7672H31.4571L36.7757 22.463H37.4193H42.0376H42.0565L43.4003 19.2088H53.8862L55.2489 22.463H59.8672L50.9713 1.00367ZM33.4445 9.73565H27.2931V5.16176H33.4256C34.8641 5.16176 36.2458 6.01145 36.2458 7.45774C36.2458 8.94019 34.7884 9.73565 33.4445 9.73565ZM45.0849 15.1592L48.6622 6.58997L52.2205 15.1592H45.0849Z" fill="#FAF8F4"/>
</svg>
