<svg width="85" height="20" viewBox="0 0 85 20" fill="none" xmlns="http://www.w3.org/2000/svg">
<path d="M16.1697 1.86441L16.9833 0H17.2206V6.88136H17.0172C16.3392 3.32203 14.4748 1.08475 10.3052 1.08475H9.83066C5.25432 1.08475 3.01699 4.94915 3.01699 10.4068C3.01699 15.8644 4.91533 19.6949 9.49167 19.6949C12.068 19.6949 15.4918 18.7797 15.6613 13.8983V10.9831H10.5764V10.6441H18.102V20H17.8308L15.6613 16.0678C14.8138 19.5254 11.6612 20 9.76286 20C4.67804 20 0 15.9322 0 10.3729C0 4.81356 4.77973 0.779661 9.86456 0.779661H10.3391C12.1697 0.779661 14.6782 1.28814 16.1697 1.86441Z" fill="white"/>
<path d="M20.3394 19.6272V19.2882H22.2716L28.0344 1.15259L34.6447 19.2882H36.2379V19.6272H30.8141V19.2882H32.3056L30.848 15.2543C29.2208 13.2204 25.6276 13.0509 24.6784 12.9831L22.7123 19.2882H24.6784V19.6272H20.3394ZM24.7462 12.7119C25.6954 12.7797 28.9497 12.9831 30.6107 14.6441L27.153 5.08479L24.7462 12.7119Z" fill="white"/>
<path d="M38.2378 19.6272V19.2882H40.5429V1.49157H38.2378V1.15259H46.4413C50.577 1.15259 53.6957 2.54242 53.6957 5.66106C53.6957 8.33903 51.3227 9.76276 48.0685 10.1017L54.9499 19.2882H57.2211V19.6272H52.2041V19.5594L45.2548 10.1695H42.9497V19.2882H45.7633V19.6272H38.2378ZM50.7465 5.66106C50.7465 2.30513 49.0515 1.49157 46.0006 1.49157H42.9836V9.83055H46.0006C49.0515 9.83055 50.7465 8.9492 50.7465 5.66106Z" fill="white"/>
<path d="M63.0517 19.6272H58.7126V19.2882H60.7466V1.49157H58.7126V1.15259H63.628L73.1535 15.2882V1.49157H71.1196V1.15259H75.4587V1.49157H73.4925V19.6272H73.1535L61.0856 1.72886V19.2882H63.0517V19.6272Z" fill="white"/>
<path d="M77.1538 19.6272V19.2882H79.4589V1.49157H77.1538V1.15259H84.2047V1.49157H81.8996V19.2543H84.2047V19.5933H77.1538V19.6272Z" fill="white"/>
</svg>
