<svg width="153" height="39" viewBox="0 0 153 39" fill="none" xmlns="http://www.w3.org/2000/svg">
<path d="M20.3007 9.12578L21.3107 6.7887H21.6137V15.5274H21.4117C20.5027 11.0564 18.1797 8.21127 12.9278 8.21127H12.3218C6.56489 8.21127 3.73694 13.0887 3.73694 19.9983C3.73694 26.9079 6.1609 31.7853 11.8168 31.7853C15.0488 31.7853 19.3917 30.6676 19.4927 24.4692V20.8112H13.1298V20.4047H22.5226V32.1918H22.2196L19.4927 27.2128C18.3817 31.5821 14.4428 32.1918 12.1198 32.1918C5.85791 32.0902 0 26.9079 0 19.8967C0 12.8854 5.9589 7.70321 12.3218 7.70321H12.9278C15.2508 7.70321 18.3817 8.41449 20.3007 9.12578Z" fill="#382E2B"/>
<path d="M25.1484 31.5818V31.1754H27.5724L34.8443 8.31262L43.1261 31.1754H45.1461V31.5818H38.2782V31.1754H40.1972L38.3792 26.0948C36.3593 23.5545 31.8143 23.2496 30.6023 23.2496L28.1784 31.1754H30.6023V31.5818H25.1484ZM30.7033 22.8432C31.9153 22.9448 35.9553 23.148 38.0762 25.2819L33.7333 13.19L30.7033 22.8432Z" fill="#382E2B"/>
<path d="M47.5708 31.5816V31.1752H50.4998V8.61726H47.5708V8.21082H57.8726C63.0236 8.21082 66.9625 9.93822 66.9625 13.9011C66.9625 17.2543 64.0336 19.0833 59.8926 19.4898L68.5785 31.0736H71.4064V31.48H65.0435V31.3784L56.3577 19.4898H53.5297V30.972H57.0647V31.3784H47.5708V31.5816ZM63.3266 13.9011C63.3266 9.63339 61.2056 8.61726 57.3677 8.61726H53.5297V19.0833H57.2667C61.1046 19.1849 63.3266 18.0672 63.3266 13.9011Z" fill="#382E2B"/>
<path d="M78.7789 31.5816H73.325V31.1752H75.8499V8.61726H73.325V8.21082H79.4858L91.4036 26.0946V8.61726H88.8787V8.21082H94.3326V8.61726H91.9086V31.48H91.5046L76.3549 8.9221V31.0736H78.7789V31.5816Z" fill="#382E2B"/>
<path d="M96.7568 31.5816V31.1752H99.6858V8.61726H96.7568V8.21082H105.645V8.61726H102.716V31.0736H105.645V31.48H96.7568V31.5816Z" fill="#382E2B"/>
<path d="M124.127 17.0512V16.7463C124.632 16.6447 124.733 16.6447 124.733 16.0351V14.4093C124.733 13.5964 124.43 13.1899 123.824 13.1899C123.42 13.1899 123.117 13.3931 122.814 13.698V16.0351C122.814 16.6447 122.814 16.7463 123.42 16.7463V16.9496H121.4V16.7463C122.006 16.7463 122.107 16.6447 122.107 16.0351V11.4625C122.107 10.8528 122.107 10.8528 121.501 10.7512V10.548C122.006 10.4464 122.511 10.3448 122.915 10.2432V13.4948C123.218 13.1899 123.723 12.7835 124.329 12.7835C125.137 12.7835 125.642 13.2915 125.642 14.4093V16.1367C125.642 16.7463 125.743 16.848 126.248 16.848V17.0512H124.127Z" fill="#382E2B"/>
<path d="M130.591 16.2381C129.985 16.9494 129.38 17.1526 129.077 17.1526C127.865 17.1526 127.259 16.2381 127.259 15.1203C127.259 14.4091 127.461 13.901 127.865 13.3929C128.269 12.9865 128.774 12.6816 129.279 12.6816C130.086 12.6816 130.692 13.3929 130.692 14.1042C130.692 14.3074 130.692 14.4091 130.49 14.4091C130.288 14.4091 129.178 14.5107 127.966 14.6123C127.966 15.9332 128.673 16.4413 129.38 16.4413C129.784 16.4413 130.086 16.2381 130.49 15.9332L130.591 16.2381ZM127.966 14.2058C128.471 14.2058 129.077 14.2058 129.582 14.2058C129.784 14.2058 129.783 14.1042 129.783 14.0026C129.783 13.4945 129.481 13.0881 128.976 13.0881C128.572 13.0881 128.168 13.4945 127.966 14.2058Z" fill="#382E2B"/>
<path d="M134.935 17.153C134.834 17.153 134.632 17.0514 134.531 16.9498C134.43 16.8482 134.329 16.6449 134.329 16.5433C133.925 16.8482 133.521 17.153 133.218 17.153C132.511 17.153 132.107 16.5433 132.107 15.9336C132.107 15.4256 132.309 15.1208 132.915 15.0191C133.521 14.8159 134.228 14.6127 134.43 14.4095V14.2062C134.43 13.495 134.127 13.0885 133.622 13.0885C133.42 13.0885 133.319 13.1901 133.218 13.2917C133.117 13.3933 133.016 13.5966 132.915 13.9014C132.915 14.1046 132.814 14.1046 132.612 14.1046C132.41 14.1046 132.208 13.9014 132.208 13.6982C132.208 13.5966 132.309 13.495 132.511 13.2917C132.814 13.0885 133.42 12.6821 133.925 12.5804C134.228 12.5804 134.531 12.6821 134.733 12.8853C135.036 13.1901 135.137 13.5966 135.137 14.1046V15.9336C135.137 16.3401 135.339 16.5433 135.44 16.5433C135.541 16.5433 135.642 16.5433 135.743 16.4417L135.844 16.6449L134.935 17.153ZM134.228 14.7143C134.026 14.8159 133.521 15.0191 133.319 15.1208C132.915 15.324 132.713 15.5272 132.713 15.832C132.713 16.3401 133.117 16.5433 133.42 16.5433C133.622 16.5433 134.026 16.3401 134.228 16.2385V14.7143Z" fill="#382E2B"/>
<path d="M136.551 17.0509V16.7461C137.157 16.6445 137.258 16.6445 137.258 16.0348V11.4623C137.258 10.8526 137.157 10.751 136.551 10.751V10.5478C137.056 10.4461 137.662 10.3445 137.965 10.2429V16.1364C137.965 16.7461 138.066 16.8477 138.672 16.8477V17.0509H136.551Z" fill="#382E2B"/>
<path d="M141.5 17.0514C141.298 17.1531 141.197 17.1531 141.096 17.1531C140.49 17.1531 140.187 16.7466 140.187 16.0353V13.1902H139.48V13.0886L139.783 12.7837H140.187V12.0724L140.793 11.4628H140.894V12.7837H142.005C142.106 12.8853 142.106 13.0886 141.904 13.1902H140.894V15.6289C140.894 16.4418 141.197 16.5434 141.399 16.5434C141.601 16.5434 141.904 16.4418 142.005 16.3402L142.106 16.5434L141.5 17.0514Z" fill="#382E2B"/>
<path d="M145.741 17.0509V16.7461C146.246 16.6445 146.347 16.6445 146.347 16.0348V14.409C146.347 13.5961 146.044 13.1897 145.438 13.1897C145.034 13.1897 144.731 13.3929 144.428 13.6977V16.0348C144.428 16.6445 144.428 16.7461 145.034 16.7461V16.9493H143.014V16.7461C143.62 16.7461 143.721 16.6445 143.721 16.0348V11.4623C143.721 10.8526 143.721 10.8526 143.115 10.751V10.5478C143.62 10.4461 144.125 10.3445 144.529 10.2429V13.4945C144.832 13.1897 145.337 12.7832 145.943 12.7832C146.751 12.7832 147.256 13.2913 147.256 14.409V16.1364C147.256 16.7461 147.357 16.8477 147.862 16.8477V17.0509H145.741Z" fill="#382E2B"/>
<path d="M152.912 13.0884C152.407 13.19 152.306 13.2916 152.104 13.7996C151.902 14.3077 151.599 15.1206 150.892 16.6448C150.286 18.169 150.084 18.7786 149.882 19.2867C149.882 19.4899 149.68 19.4899 149.579 19.4899C149.276 19.4899 149.074 19.2867 149.074 18.9819C149.074 18.7786 149.175 18.7786 149.276 18.677C149.579 18.4738 149.781 18.2706 149.983 17.8641C150.185 17.5593 150.286 17.3561 150.286 17.1528C150.286 17.0512 150.286 16.848 150.286 16.7464C149.882 15.6287 149.478 14.5109 149.175 13.7996C148.973 13.2916 148.872 13.19 148.367 13.0884V12.8851H150.286V13.0884C149.882 13.19 149.781 13.2916 149.882 13.5964L150.791 16.0351C151.094 15.4254 151.498 14.2061 151.7 13.5964C151.801 13.19 151.7 13.0884 151.195 13.0884V12.8851H152.912V13.0884Z" fill="#382E2B"/>
<path d="M124.127 28.5337V28.3305C124.632 28.2288 124.733 28.2288 124.733 27.6192V25.9934C124.733 25.1805 124.43 24.774 123.824 24.774C123.42 24.774 123.117 24.9773 122.814 25.2821V27.6192C122.814 28.2288 122.814 28.3305 123.42 28.3305V28.5337H121.4V28.3305C122.006 28.3305 122.107 28.2288 122.107 27.6192V23.0466C122.107 22.4369 122.107 22.4369 121.501 22.3353V22.1321C122.006 22.0305 122.511 21.9289 122.915 21.8273V25.0789C123.218 24.774 123.723 24.3676 124.329 24.3676C125.137 24.3676 125.642 24.8756 125.642 25.9934V27.7208C125.642 28.3305 125.743 28.4321 126.248 28.4321V28.6353H124.127V28.5337Z" fill="#382E2B"/>
<path d="M131.702 28.3299C131.298 28.4315 130.793 28.5332 130.288 28.6348L130.187 28.5332V27.9235C129.985 28.1267 129.783 28.2283 129.48 28.4315C129.177 28.6348 128.975 28.6348 128.773 28.6348C128.167 28.6348 127.561 28.2283 127.561 27.2122V25.2816C127.561 24.7735 127.561 24.6719 126.955 24.5703V24.367C127.359 24.367 127.864 24.2654 128.369 24.1638C128.369 24.4687 128.369 24.8751 128.369 25.5864V26.9074C128.369 27.7203 128.773 28.0251 129.177 28.0251C129.48 28.0251 129.884 27.9235 130.187 27.517V25.2816C130.187 24.7735 130.086 24.6719 129.48 24.5703V24.367C129.985 24.367 130.49 24.2654 130.995 24.1638V27.4154C130.995 27.9235 131.096 27.9235 131.399 28.0251H131.702V28.3299Z" fill="#382E2B"/>
<path d="M134.53 24.3676C134.732 24.266 134.833 24.266 134.934 24.266C135.944 24.266 136.853 25.1805 136.853 26.2982C136.853 27.7208 135.742 28.7369 134.429 28.7369C134.025 28.7369 133.52 28.6353 133.015 28.4321V23.0466C133.015 22.4369 133.015 22.4369 132.409 22.3353V22.1321C132.813 22.0305 133.419 21.9289 133.823 21.8273V24.774L134.53 24.3676ZM133.823 27.4159C133.823 27.5176 133.823 27.6192 133.924 27.7208C134.025 27.924 134.227 28.2288 134.732 28.2288C135.54 28.2288 136.045 27.5176 136.045 26.3998C136.045 25.2821 135.338 24.6724 134.631 24.6724C134.328 24.6724 134.025 24.774 133.924 24.8756V27.4159H133.823Z" fill="#382E2B"/>
<path d="M114.431 0.48877H113.926V38.9998H114.431V0.48877Z" fill="#382E2B"/>
</svg>
