<svg width="9" height="16" viewBox="0 0 9 16" fill="none" xmlns="http://www.w3.org/2000/svg">
<path d="M8.68252 0.00324454L6.66036 0C4.38853 0 2.92037 1.50628 2.92037 3.83765V5.60706H0.887179C0.711487 5.60706 0.569214 5.7495 0.569214 5.92519V8.48886C0.569214 8.66456 0.71165 8.80683 0.887179 8.80683H2.92037V15.2758C2.92037 15.4515 3.06265 15.5938 3.23834 15.5938H5.89108C6.06677 15.5938 6.20904 15.4513 6.20904 15.2758V8.80683H8.58632C8.76201 8.80683 8.90429 8.66456 8.90429 8.48886L8.90526 5.92519C8.90526 5.84083 8.87168 5.76004 8.81214 5.70034C8.7526 5.64064 8.67149 5.60706 8.58713 5.60706H6.20904V4.10711C6.20904 3.38617 6.38084 3.02018 7.31998 3.02018L8.6822 3.0197C8.85773 3.0197 9 2.87726 9 2.70173V0.32121C9 0.145842 8.85789 0.003569 8.68252 0.00324454Z" fill="#382E2B"/>
</svg>
