<svg width="17" height="16" viewBox="0 0 17 16" fill="none" xmlns="http://www.w3.org/2000/svg">
<path fill-rule="evenodd" clip-rule="evenodd" d="M0 5C0 2.23858 2.23858 0 5 0H12C14.7614 0 17 2.23858 17 5V11C17 13.7614 14.7614 16 12 16H5C2.23858 16 0 13.7614 0 11V5ZM8.55005 10.7C9.90315 10.7 11 9.6031 11 8.25C11 6.8969 9.90315 5.8 8.55005 5.8C7.19695 5.8 6.10005 6.8969 6.10005 8.25C6.10005 9.6031 7.19695 10.7 8.55005 10.7ZM8.55005 12.5C10.8973 12.5 12.8 10.5972 12.8 8.25C12.8 5.90279 10.8973 4 8.55005 4C6.20284 4 4.30005 5.90279 4.30005 8.25C4.30005 10.5972 6.20284 12.5 8.55005 12.5ZM13 4.5C13.5523 4.5 14 4.05228 14 3.5C14 2.94772 13.5523 2.5 13 2.5C12.4477 2.5 12 2.94772 12 3.5C12 4.05228 12.4477 4.5 13 4.5Z" fill="#382E2B"/>
</svg>
