<svg width="182" height="76" viewBox="0 0 182 76" fill="none" xmlns="http://www.w3.org/2000/svg">
<path d="M34.9708 4.38377L36.7278 0.341553H37.256V15.2708H36.8356C35.2941 7.55288 31.3058 2.713 22.3051 2.713H21.2919C11.3965 2.713 6.50276 11.0669 6.50276 22.8271C6.50276 34.5872 10.5989 42.9412 20.5158 42.9412C26.0994 42.9412 33.4509 40.9686 33.8174 30.4372V24.1637H22.8441V23.4199H39.0777V43.6418H38.4956L33.8174 35.1262C31.9526 42.5747 25.194 43.6418 21.0979 43.6418C10.1354 43.6418 0.0244141 34.8567 0.0244141 22.8379C0.0244141 10.819 10.3509 2.0339 21.3134 2.0339H22.3267C26.6406 2.12975 30.9105 2.9233 34.9708 4.38377Z" fill="#FAF8F4"/>
<path d="M44.0254 42.7795V42.0357H48.1754L60.6254 2.8208L74.9403 42.0357H78.4005V42.7795H66.6079V42.0357H69.8417L66.6079 33.4123C63.0939 29.1006 55.322 28.6264 53.2524 28.5186L49.0485 42.0897H53.3063V42.8334L44.0254 42.7795ZM53.5542 27.8287C55.6239 27.9904 62.6519 28.4108 66.2199 31.9787L58.6744 11.3364L53.5542 27.8287Z" fill="#FAF8F4"/>
<path d="M82.6265 42.7796V42.0358H87.6281V3.61853H82.6265V2.87476H100.401C109.337 2.87476 116.096 5.90373 116.096 12.5761C116.096 18.3753 110.987 21.4043 103.915 22.1588L118.812 42.0034H123.706V42.7472H112.798V42.5855L97.8468 22.3098H92.8991V41.9927H99.0002V42.7364L82.6265 42.7796ZM109.661 12.5976C109.661 5.36475 105.985 3.60774 99.3882 3.60774H92.9206V21.6307H99.3882C105.985 21.6307 109.65 19.7443 109.65 12.6084L109.661 12.5976Z" fill="#FAF8F4"/>
<path d="M136.263 42.7796H126.896V42.0358H131.208V3.61853H126.896V2.87476H137.535L158.124 33.4232V3.61853H153.812V2.87476H163.179V3.61853H158.921V42.7796H158.177L132.048 4.09282V42.0358H136.306L136.263 42.7796Z" fill="#FAF8F4"/>
<path d="M166.726 42.7796V42.0358H171.728V3.61853H166.726V2.87476H182V3.61853H176.999V42.0358H182V42.7796H166.726Z" fill="#FAF8F4"/>
<path d="M52.3466 71.5385V71.1074C53.2952 71.0104 53.4245 70.9134 53.4245 69.8354V67.1083C53.4245 65.7609 52.9179 65.0818 51.8076 65.0818C51.4786 65.0922 51.1556 65.1725 50.8601 65.3175C50.5645 65.4625 50.3033 65.6687 50.0937 65.9226V69.8354C50.0937 70.9134 50.18 70.9996 51.1717 71.1074V71.5385H47.6899V71.1074C48.6816 71.0211 48.8218 70.9241 48.8218 69.8354V61.9881C48.8218 60.9102 48.8218 60.9102 47.7439 60.7701V60.4359C48.5609 60.3013 49.3677 60.1104 50.1584 59.8646V65.3944C50.7622 64.7127 51.6018 64.2852 52.5083 64.1979C53.8449 64.1979 54.7827 65.0387 54.7827 67.0113V69.8893C54.7827 70.9672 54.9013 71.0751 55.8606 71.1613V71.5925L52.3466 71.5385Z" fill="#FAF8F4"/>
<path d="M63.6117 70.1373C63.3062 70.5813 62.908 70.9539 62.4447 71.2293C61.9813 71.5047 61.4637 71.6764 60.9276 71.7326C60.4793 71.7342 60.0356 71.6425 59.6246 71.4634C59.2136 71.2843 58.8443 71.0217 58.5402 70.6922C58.2361 70.3628 58.0038 69.9737 57.8581 69.5497C57.7124 69.1257 57.6565 68.6761 57.6939 68.2293C57.6802 67.1689 58.0649 66.1419 58.7718 65.3513C59.0691 64.9951 59.4374 64.7048 59.8531 64.4988C60.2688 64.2928 60.7229 64.1757 61.1864 64.1548C61.8405 64.1741 62.462 64.4448 62.9217 64.9105C63.3814 65.3762 63.644 66.0012 63.6548 66.6555C63.6548 66.9897 63.5686 67.1191 63.2775 67.1838C62.9865 67.2484 60.9384 67.3993 58.9658 67.464C58.9658 69.7061 60.2701 70.6223 61.4127 70.6223C62.1216 70.6077 62.7958 70.3132 63.2883 69.8031L63.6117 70.1373ZM59.1167 66.7849C60.033 66.7849 60.9384 66.7849 61.8978 66.7849C62.1888 66.7849 62.2966 66.6879 62.2966 66.4507C62.3158 66.2464 62.2932 66.0404 62.23 65.8452C62.1669 65.6499 62.0646 65.4696 61.9294 65.3152C61.7942 65.1609 61.629 65.0357 61.4437 64.9474C61.2585 64.859 61.0572 64.8094 60.8522 64.8015C60.0761 64.7476 59.3539 65.4483 59.1167 66.7849Z" fill="#FAF8F4"/>
<path d="M70.9737 71.7326C70.6882 71.7141 70.4161 71.6045 70.1976 71.42C70.0043 71.2094 69.8672 70.9537 69.7987 70.6762C69.2372 71.1711 68.5753 71.5388 67.8584 71.7541C67.5971 71.7527 67.3386 71.6997 67.0978 71.598C66.857 71.4963 66.6386 71.3481 66.4553 71.1618C66.272 70.9754 66.1273 70.7547 66.0296 70.5123C65.9319 70.2699 65.883 70.0106 65.8859 69.7492C65.8818 69.3641 66.0136 68.9898 66.258 68.6921C66.5024 68.3945 66.8439 68.1924 67.2225 68.1215C68.1135 67.864 68.971 67.5022 69.7772 67.0436V66.7525C69.7772 65.5668 69.2166 64.8985 68.3974 64.8985C68.2562 64.8939 68.1157 64.9215 67.9868 64.9794C67.8579 65.0373 67.744 65.124 67.6537 65.2327C67.4005 65.5447 67.23 65.9154 67.1578 66.3106C67.1394 66.421 67.0807 66.5206 66.9931 66.5903C66.9055 66.66 66.7952 66.6947 66.6835 66.6879C66.5 66.6694 66.3284 66.5888 66.1971 66.4594C66.0657 66.33 65.9825 66.1596 65.9613 65.9765C65.9613 65.7285 66.1769 65.5453 66.4895 65.3189C67.2331 64.7838 68.0704 64.3926 68.958 64.1655C69.4441 64.1567 69.9189 64.3124 70.3054 64.6075C70.5763 64.8611 70.7846 65.1743 70.9137 65.5222C71.0428 65.8702 71.0891 66.2434 71.0491 66.6124V69.6737C71.0491 70.4175 71.3402 70.6654 71.6204 70.6654C71.8303 70.6551 72.0342 70.5921 72.2133 70.4822L72.375 70.9133L70.9737 71.7326ZM69.7772 67.5826C69.4323 67.7658 68.6453 68.1107 68.3004 68.2724C67.6536 68.5635 67.2979 68.8761 67.2979 69.4689C67.2892 69.6293 67.3126 69.7897 67.3667 69.9409C67.4208 70.0921 67.5045 70.231 67.6129 70.3494C67.7213 70.4679 67.8522 70.5635 67.9981 70.6307C68.1439 70.6979 68.3016 70.7354 68.4621 70.7409C68.9516 70.6853 69.4114 70.478 69.7772 70.148V67.5826Z" fill="#FAF8F4"/>
<path d="M73.7979 71.5385V71.1074C74.8758 71.0104 74.9836 70.9134 74.9836 69.8246V62.042C74.9836 60.9641 74.8866 60.8779 73.8518 60.7916V60.4359C74.6807 60.3264 75.4967 60.1351 76.2879 59.8646V69.8678C76.2879 70.9457 76.4172 71.0535 77.4736 71.1505V71.5817L73.7979 71.5385Z" fill="#FAF8F4"/>
<path d="M82.3133 71.517C82.1018 71.6383 81.8664 71.7119 81.6235 71.7326C80.5455 71.7326 80.0066 71.075 80.0066 69.7707V64.9848H78.8747L78.8101 64.8231L79.252 64.3488H80.0066V63.1523L81.0845 62.0743H81.3109V64.3272H83.1649C83.2375 64.4259 83.2681 64.5494 83.2499 64.6706C83.2317 64.7918 83.1663 64.9009 83.0679 64.974H81.3109V69.1994C81.3109 70.5361 81.8498 70.7732 82.2702 70.7732C82.6285 70.7591 82.9787 70.6633 83.2942 70.4929L83.4452 70.9241L82.3133 71.517Z" fill="#FAF8F4"/>
<path d="M89.6327 71.5385V71.1074C90.5812 71.0104 90.7106 70.9134 90.7106 69.8354V67.1083C90.7106 65.7609 90.204 65.0818 89.0937 65.0818C88.7647 65.0922 88.4417 65.1725 88.1462 65.3175C87.8507 65.4625 87.5894 65.6687 87.3798 65.9226V69.8354C87.3798 70.9134 87.466 70.9996 88.4577 71.1074V71.5385H84.9868V71.1074C85.9785 71.0211 86.1186 70.9241 86.1186 69.8354V61.9881C86.1186 60.9102 86.1186 60.9102 85.0407 60.7701V60.4359C85.8577 60.3012 86.6645 60.1103 87.4553 59.8646V65.3944C88.0591 64.7127 88.8987 64.2852 89.8051 64.1979C91.1418 64.1979 92.0796 65.0387 92.0796 67.0113V69.8893C92.0796 70.9672 92.1981 71.0751 93.1575 71.1613V71.5925L89.6327 71.5385Z" fill="#FAF8F4"/>
<path d="M101.954 64.7476C101.081 64.8769 100.93 65.0062 100.488 65.944C100.046 66.8818 99.5714 68.1754 98.4288 70.8917C97.7647 72.3357 97.1993 73.823 96.7365 75.3435C96.7153 75.4646 96.649 75.573 96.551 75.647C96.453 75.7211 96.3305 75.7552 96.2083 75.7424C95.9842 75.7431 95.7672 75.6645 95.5955 75.5205C95.4239 75.3765 95.3087 75.1763 95.2705 74.9555C95.2705 74.6968 95.4214 74.5459 95.7017 74.3627C96.2373 73.9981 96.6595 73.49 96.9198 72.8967C97.1255 72.537 97.2952 72.1579 97.4264 71.7649C97.5146 71.5248 97.5146 71.2612 97.4264 71.0211C96.7688 69.1455 96.0251 67.1513 95.54 65.9872C95.1951 65.0817 95.0334 64.9092 94.1279 64.7368V64.3271H97.4695V64.7476C96.7149 64.8769 96.6287 65.0386 96.8443 65.653L98.3426 69.7815C98.8061 68.7036 99.5068 66.7202 99.8517 65.6853C100.046 65.0601 99.9379 64.8769 99.0001 64.7476V64.3379H101.975L101.954 64.7476Z" fill="#FAF8F4"/>
<path d="M112.388 71.5385V71.1074C113.336 71.0104 113.466 70.9134 113.466 69.8354V67.1083C113.466 65.7609 112.959 65.0818 111.849 65.0818C111.52 65.0922 111.197 65.1725 110.901 65.3175C110.606 65.4625 110.344 65.6687 110.135 65.9226V69.8354C110.135 70.9134 110.221 70.9996 111.213 71.1074V71.5385H107.731V71.1074C108.723 71.0211 108.863 70.9241 108.863 69.8354V61.9881C108.863 60.9102 108.863 60.9102 107.785 60.7701V60.4359C108.602 60.3013 109.409 60.1104 110.199 59.8646V65.3944C110.803 64.7127 111.643 64.2852 112.549 64.1979C113.886 64.1979 114.824 65.0387 114.824 67.0113V69.8893C114.824 70.9672 114.942 71.0751 115.902 71.1613V71.5925L112.388 71.5385Z" fill="#FAF8F4"/>
<path d="M125.43 71.1397C124.613 71.2825 123.806 71.4806 123.016 71.7326L122.919 71.6356V70.4606C122.542 70.7409 122.164 71.0319 121.701 71.3122C121.325 71.569 120.884 71.7113 120.429 71.7218C119.351 71.7218 118.392 71.0427 118.392 69.2749V66.0412C118.392 65.1357 118.327 65.071 117.389 64.8878V64.5105C118.178 64.461 118.962 64.3639 119.739 64.2195C119.739 64.7261 119.739 65.5022 119.739 66.6232V68.7791C119.739 70.2451 120.45 70.6331 121.183 70.6331C121.857 70.6156 122.496 70.3328 122.962 69.8462V66.0196C122.962 65.0818 122.865 65.0171 121.679 64.8554V64.4782C122.548 64.4455 123.412 64.3483 124.266 64.1871V69.6845C124.266 70.5038 124.396 70.6223 125.021 70.6547H125.484L125.43 71.1397Z" fill="#FAF8F4"/>
<path d="M130.432 64.3165C130.645 64.2171 130.876 64.1621 131.111 64.1548C131.997 64.1857 132.834 64.5659 133.44 65.2122C134.046 65.8586 134.371 66.7185 134.345 67.6041C134.351 68.1479 134.248 68.6873 134.043 69.1908C133.837 69.6943 133.533 70.1517 133.149 70.5362C132.764 70.9208 132.307 71.2247 131.803 71.4301C131.3 71.6355 130.76 71.7384 130.217 71.7326C129.378 71.7136 128.554 71.5112 127.802 71.1397V61.9989C127.802 60.9749 127.802 60.921 126.724 60.7809V60.4359C127.534 60.319 128.331 60.1278 129.106 59.8646V64.9309L130.432 64.3165ZM129.096 69.6306C129.087 69.8223 129.12 70.0136 129.193 70.1911C129.317 70.4729 129.524 70.7108 129.785 70.8741C130.046 71.0374 130.351 71.1187 130.659 71.1074C132.028 71.1074 132.901 69.9432 132.901 68.0353C132.946 67.673 132.915 67.3053 132.811 66.9554C132.706 66.6055 132.531 66.281 132.295 66.0025C132.059 65.7239 131.768 65.4973 131.44 65.337C131.112 65.1767 130.754 65.0861 130.389 65.071C129.942 65.069 129.502 65.1763 129.106 65.3836L129.096 69.6306Z" fill="#FAF8F4"/>
</svg>
